<mxfile host="app.diagrams.net" modified="2024-05-20T09:54:22.981Z" agent="Mozilla/5.0 (Windows NT 10.0; Win64; x64) AppleWebKit/537.36 (KHTML, like Gecko) Chrome/124.0.0.0 Safari/537.36" etag="pG0i1eQHsa807YY0cqdM" version="24.4.4" type="device">
  <diagram name="PÃ¡gina-1" id="LIleAg7NHiMx5K5aTCJp">
    <mxGraphModel dx="1434" dy="772" grid="1" gridSize="10" guides="1" tooltips="1" connect="1" arrows="1" fold="1" page="1" pageScale="1" pageWidth="827" pageHeight="1169" math="0" shadow="0">
      <root>
        <mxCell id="0" />
        <mxCell id="1" parent="0" />
        <mxCell id="anh4YpMieQJwslpIxNZ9-7" value="change_direction" style="ellipse;whiteSpace=wrap;html=1;" vertex="1" parent="1">
          <mxGeometry x="450" y="520" width="100" height="90" as="geometry" />
        </mxCell>
        <mxCell id="anh4YpMieQJwslpIxNZ9-9" value="initial_state" style="ellipse;whiteSpace=wrap;html=1;" vertex="1" parent="1">
          <mxGeometry x="350" y="30" width="100" height="90" as="geometry" />
        </mxCell>
        <mxCell id="anh4YpMieQJwslpIxNZ9-10" value="get_sip" style="ellipse;whiteSpace=wrap;html=1;" vertex="1" parent="1">
          <mxGeometry x="350" y="190" width="100" height="90" as="geometry" />
        </mxCell>
        <mxCell id="anh4YpMieQJwslpIxNZ9-11" value="process_sip" style="ellipse;whiteSpace=wrap;html=1;" vertex="1" parent="1">
          <mxGeometry x="350" y="350" width="100" height="90" as="geometry" />
        </mxCell>
        <mxCell id="anh4YpMieQJwslpIxNZ9-12" value="rate_obstacle" style="ellipse;whiteSpace=wrap;html=1;" vertex="1" parent="1">
          <mxGeometry x="640" y="520" width="100" height="90" as="geometry" />
        </mxCell>
        <mxCell id="anh4YpMieQJwslpIxNZ9-14" value="get_trash" style="ellipse;whiteSpace=wrap;html=1;" vertex="1" parent="1">
          <mxGeometry x="220" y="520" width="100" height="90" as="geometry" />
        </mxCell>
        <mxCell id="anh4YpMieQJwslpIxNZ9-15" value="send_next_&lt;div&gt;command&lt;/div&gt;" style="ellipse;whiteSpace=wrap;html=1;" vertex="1" parent="1">
          <mxGeometry x="70" y="520" width="100" height="90" as="geometry" />
        </mxCell>
        <mxCell id="anh4YpMieQJwslpIxNZ9-18" value="" style="endArrow=classic;html=1;rounded=0;" edge="1" parent="1" source="anh4YpMieQJwslpIxNZ9-9" target="anh4YpMieQJwslpIxNZ9-10">
          <mxGeometry width="50" height="50" relative="1" as="geometry">
            <mxPoint x="440" y="420" as="sourcePoint" />
            <mxPoint x="490" y="370" as="targetPoint" />
          </mxGeometry>
        </mxCell>
        <mxCell id="anh4YpMieQJwslpIxNZ9-19" value="" style="endArrow=classic;html=1;rounded=0;" edge="1" parent="1" source="anh4YpMieQJwslpIxNZ9-10" target="anh4YpMieQJwslpIxNZ9-11">
          <mxGeometry width="50" height="50" relative="1" as="geometry">
            <mxPoint x="440" y="420" as="sourcePoint" />
            <mxPoint x="490" y="370" as="targetPoint" />
          </mxGeometry>
        </mxCell>
        <mxCell id="anh4YpMieQJwslpIxNZ9-20" value="" style="endArrow=classic;html=1;rounded=0;" edge="1" parent="1" source="anh4YpMieQJwslpIxNZ9-11" target="anh4YpMieQJwslpIxNZ9-12">
          <mxGeometry width="50" height="50" relative="1" as="geometry">
            <mxPoint x="540" y="390" as="sourcePoint" />
            <mxPoint x="440" y="370" as="targetPoint" />
          </mxGeometry>
        </mxCell>
        <mxCell id="anh4YpMieQJwslpIxNZ9-21" value="" style="endArrow=classic;html=1;rounded=0;" edge="1" parent="1" source="anh4YpMieQJwslpIxNZ9-11" target="anh4YpMieQJwslpIxNZ9-7">
          <mxGeometry width="50" height="50" relative="1" as="geometry">
            <mxPoint x="390" y="420" as="sourcePoint" />
            <mxPoint x="440" y="370" as="targetPoint" />
          </mxGeometry>
        </mxCell>
        <mxCell id="anh4YpMieQJwslpIxNZ9-23" value="" style="endArrow=classic;html=1;rounded=0;" edge="1" parent="1" source="anh4YpMieQJwslpIxNZ9-11" target="anh4YpMieQJwslpIxNZ9-14">
          <mxGeometry width="50" height="50" relative="1" as="geometry">
            <mxPoint x="390" y="420" as="sourcePoint" />
            <mxPoint x="440" y="370" as="targetPoint" />
          </mxGeometry>
        </mxCell>
        <mxCell id="anh4YpMieQJwslpIxNZ9-24" value="" style="endArrow=classic;html=1;rounded=0;" edge="1" parent="1" source="anh4YpMieQJwslpIxNZ9-11" target="anh4YpMieQJwslpIxNZ9-15">
          <mxGeometry width="50" height="50" relative="1" as="geometry">
            <mxPoint x="390" y="420" as="sourcePoint" />
            <mxPoint x="440" y="370" as="targetPoint" />
          </mxGeometry>
        </mxCell>
        <mxCell id="anh4YpMieQJwslpIxNZ9-25" value="" style="endArrow=classic;html=1;rounded=0;exitX=0.35;exitY=0.033;exitDx=0;exitDy=0;exitPerimeter=0;" edge="1" parent="1" source="anh4YpMieQJwslpIxNZ9-12" target="anh4YpMieQJwslpIxNZ9-10">
          <mxGeometry width="50" height="50" relative="1" as="geometry">
            <mxPoint x="390" y="420" as="sourcePoint" />
            <mxPoint x="440" y="370" as="targetPoint" />
          </mxGeometry>
        </mxCell>
        <mxCell id="anh4YpMieQJwslpIxNZ9-27" value="" style="endArrow=classic;html=1;rounded=0;" edge="1" parent="1" source="anh4YpMieQJwslpIxNZ9-12" target="anh4YpMieQJwslpIxNZ9-7">
          <mxGeometry width="50" height="50" relative="1" as="geometry">
            <mxPoint x="390" y="420" as="sourcePoint" />
            <mxPoint x="440" y="370" as="targetPoint" />
          </mxGeometry>
        </mxCell>
        <mxCell id="anh4YpMieQJwslpIxNZ9-30" value="" style="curved=1;endArrow=classic;html=1;rounded=0;" edge="1" parent="1" source="anh4YpMieQJwslpIxNZ9-10" target="anh4YpMieQJwslpIxNZ9-10">
          <mxGeometry width="50" height="50" relative="1" as="geometry">
            <mxPoint x="480" y="200" as="sourcePoint" />
            <mxPoint x="530" y="150" as="targetPoint" />
            <Array as="points">
              <mxPoint x="530" y="200" />
              <mxPoint x="480" y="150" />
            </Array>
          </mxGeometry>
        </mxCell>
        <mxCell id="anh4YpMieQJwslpIxNZ9-35" value="" style="endArrow=classic;html=1;rounded=0;entryX=0;entryY=0.5;entryDx=0;entryDy=0;" edge="1" parent="1" target="anh4YpMieQJwslpIxNZ9-10">
          <mxGeometry width="50" height="50" relative="1" as="geometry">
            <mxPoint x="40" y="640" as="sourcePoint" />
            <mxPoint x="440" y="370" as="targetPoint" />
            <Array as="points">
              <mxPoint x="40" y="235" />
            </Array>
          </mxGeometry>
        </mxCell>
        <mxCell id="anh4YpMieQJwslpIxNZ9-37" value="" style="endArrow=classic;html=1;rounded=0;" edge="1" parent="1" source="anh4YpMieQJwslpIxNZ9-15">
          <mxGeometry width="50" height="50" relative="1" as="geometry">
            <mxPoint x="390" y="420" as="sourcePoint" />
            <mxPoint x="120" y="640" as="targetPoint" />
          </mxGeometry>
        </mxCell>
        <mxCell id="anh4YpMieQJwslpIxNZ9-38" value="" style="endArrow=classic;html=1;rounded=0;" edge="1" parent="1" source="anh4YpMieQJwslpIxNZ9-14">
          <mxGeometry width="50" height="50" relative="1" as="geometry">
            <mxPoint x="130" y="620" as="sourcePoint" />
            <mxPoint x="270" y="640" as="targetPoint" />
          </mxGeometry>
        </mxCell>
        <mxCell id="anh4YpMieQJwslpIxNZ9-39" value="" style="endArrow=classic;html=1;rounded=0;" edge="1" parent="1" source="anh4YpMieQJwslpIxNZ9-7">
          <mxGeometry width="50" height="50" relative="1" as="geometry">
            <mxPoint x="280" y="620" as="sourcePoint" />
            <mxPoint x="500" y="640" as="targetPoint" />
          </mxGeometry>
        </mxCell>
        <mxCell id="anh4YpMieQJwslpIxNZ9-40" value="" style="endArrow=classic;html=1;rounded=0;" edge="1" parent="1">
          <mxGeometry width="50" height="50" relative="1" as="geometry">
            <mxPoint x="500" y="640" as="sourcePoint" />
            <mxPoint x="40" y="640" as="targetPoint" />
          </mxGeometry>
        </mxCell>
        <mxCell id="anh4YpMieQJwslpIxNZ9-41" value="There was no sip" style="text;html=1;align=center;verticalAlign=middle;whiteSpace=wrap;rounded=0;" vertex="1" parent="1">
          <mxGeometry x="510" y="170" width="60" height="30" as="geometry" />
        </mxCell>
        <mxCell id="anh4YpMieQJwslpIxNZ9-42" value="There is sip" style="text;html=1;align=center;verticalAlign=middle;whiteSpace=wrap;rounded=0;" vertex="1" parent="1">
          <mxGeometry x="340" y="290" width="60" height="30" as="geometry" />
        </mxCell>
        <mxCell id="anh4YpMieQJwslpIxNZ9-43" value="There are obstacles" style="text;html=1;align=center;verticalAlign=middle;whiteSpace=wrap;rounded=0;" vertex="1" parent="1">
          <mxGeometry x="501" y="430" width="60" height="30" as="geometry" />
        </mxCell>
        <mxCell id="anh4YpMieQJwslpIxNZ9-44" value="There is trash" style="text;html=1;align=center;verticalAlign=middle;whiteSpace=wrap;rounded=0;" vertex="1" parent="1">
          <mxGeometry x="330" y="480" width="60" height="30" as="geometry" />
        </mxCell>
        <mxCell id="anh4YpMieQJwslpIxNZ9-45" value="There is limit" style="text;html=1;align=center;verticalAlign=middle;whiteSpace=wrap;rounded=0;" vertex="1" parent="1">
          <mxGeometry x="400" y="480" width="60" height="30" as="geometry" />
        </mxCell>
        <mxCell id="anh4YpMieQJwslpIxNZ9-46" value="Command finished" style="text;html=1;align=center;verticalAlign=middle;whiteSpace=wrap;rounded=0;" vertex="1" parent="1">
          <mxGeometry x="160" y="480" width="60" height="30" as="geometry" />
        </mxCell>
        <mxCell id="anh4YpMieQJwslpIxNZ9-47" value="The obstacle is the limit" style="text;html=1;align=center;verticalAlign=middle;whiteSpace=wrap;rounded=0;" vertex="1" parent="1">
          <mxGeometry x="560" y="565" width="80" height="40" as="geometry" />
        </mxCell>
        <mxCell id="anh4YpMieQJwslpIxNZ9-48" value="&lt;div&gt;&lt;br&gt;&lt;/div&gt;&lt;div&gt;2 seconds passed, and I walked forward to get a new sip&lt;/div&gt;" style="text;html=1;align=center;verticalAlign=middle;whiteSpace=wrap;rounded=0;" vertex="1" parent="1">
          <mxGeometry x="520" y="350" width="190" height="30" as="geometry" />
        </mxCell>
      </root>
    </mxGraphModel>
  </diagram>
</mxfile>
